<svg width="32" height="32" viewBox="0 0 32 32" fill="none" xmlns="http://www.w3.org/2000/svg">
<rect width="32" height="32" rx="16" fill="#31312F"/>
<path d="M17 10C17 9.44772 16.5523 9 16 9C15.4477 9 15 9.44772 15 10L17 10ZM15.2929 22.7071C15.6834 23.0976 16.3166 23.0976 16.7071 22.7071L23.0711 16.3431C23.4616 15.9526 23.4616 15.3195 23.0711 14.9289C22.6805 14.5384 22.0474 14.5384 21.6569 14.9289L16 20.5858L10.3431 14.9289C9.95262 14.5384 9.31946 14.5384 8.92893 14.9289C8.53841 15.3195 8.53841 15.9526 8.92893 16.3431L15.2929 22.7071ZM15 10L15 22L17 22L17 10L15 10Z" fill="#737373"/>
</svg>
