<svg width="32" height="32" viewBox="0 0 32 32" fill="none" xmlns="http://www.w3.org/2000/svg">
<path d="M9.79289 20.792C9.40237 21.1825 9.40237 21.8157 9.79289 22.2062C10.1834 22.5967 10.8166 22.5967 11.2071 22.2062L9.79289 20.792ZM22.4982 10.5009C22.4982 9.94862 22.0505 9.5009 21.4982 9.5009L12.4982 9.5009C11.9459 9.5009 11.4982 9.94862 11.4982 10.5009C11.4982 11.0532 11.9459 11.5009 12.4982 11.5009L20.4982 11.5009L20.4982 19.5009C20.4982 20.0532 20.9459 20.5009 21.4982 20.5009C22.0505 20.5009 22.4982 20.0532 22.4982 19.5009L22.4982 10.5009ZM11.2071 22.2062L22.2053 11.208L20.7911 9.79379L9.79289 20.792L11.2071 22.2062Z" fill="#E5E8DF"/>
</svg>
