<svg width="445" height="322" viewBox="0 0 445 322" fill="none" xmlns="http://www.w3.org/2000/svg">
<path opacity="0.2" d="M41.4941 19.3878C30.4953 19.3878 19.9464 23.6121 12.1658 31.1324C4.38512 38.6527 0.00930518 48.8537 -2.68221e-06 59.4935C-2.68221e-06 70.1392 4.37168 80.3489 12.1533 87.8766C19.935 95.4042 30.4892 99.6332 41.4941 99.6332H83V59.4935C82.9907 48.8517 78.6133 38.6491 70.8301 31.1284C63.0469 23.6078 52.495 19.3848 41.4941 19.3878Z" fill="#737373"/>
<path opacity="0.2" d="M249 289.128H353V189.547C353 202.624 350.31 215.573 345.083 227.655C339.857 239.737 332.196 250.715 322.539 259.962C312.882 269.209 301.417 276.544 288.799 281.548C276.181 286.553 262.657 289.128 249 289.128Z" fill="#737373"/>
<path opacity="0.2" d="M279 0.0515654L175 0.0515654V99.6332C175 86.556 177.69 73.6067 182.917 61.5249C188.143 49.4431 195.804 38.4653 205.461 29.2183C215.118 19.9713 226.583 12.6362 239.201 7.63176C251.819 2.62731 265.343 0.0515654 279 0.0515654Z" fill="#737373"/>
<path opacity="0.2" d="M161.536 99.6332H161.532C154.072 99.6332 148.021 93.7863 148.017 86.5737L148.017 86.57C148.013 79.3574 154.057 73.5104 161.517 73.5104H161.521C168.981 73.5104 175.032 79.3574 175.037 86.57L175.037 86.5737C175.041 93.7863 168.996 99.6332 161.536 99.6332Z" fill="#737373"/>
<path opacity="0.2" d="M151.958 77.341C150.703 78.5533 149.708 79.9927 149.029 81.5769C148.35 83.161 148 84.859 148 86.5737C148 88.2884 148.35 89.9863 149.029 91.5705C149.708 93.1546 150.703 94.594 151.958 95.8064C153.213 97.019 154.703 97.9809 156.342 98.6371C157.982 99.2934 159.739 99.6312 161.513 99.6312C163.288 99.6312 165.045 99.2934 166.685 98.6371C168.324 97.9809 169.814 97.019 171.068 95.8064L151.958 77.341Z" fill="#737373"/>
<path opacity="0.2" d="M316.5 148.941H301V164.41C301 166.441 301.401 168.453 302.18 170.329C302.959 172.206 304.101 173.911 305.54 175.348C306.979 176.784 308.688 177.924 310.568 178.701C312.449 179.479 314.465 179.879 316.5 179.879H332V164.41C332 160.307 330.367 156.372 327.46 153.471C324.553 150.57 320.611 148.941 316.5 148.941Z" fill="#737373"/>
<path opacity="0.2" d="M388.612 35.8236L352 35.8236V0.446432L388.612 0.446432V35.8236Z" fill="#737373"/>
<path opacity="0.2" d="M388.612 0.45143L352 0.45143V35.8236L388.612 0.45143Z" fill="#737373"/>
<path opacity="0.2" d="M421 322L387 322C387 313.282 383.418 304.921 377.042 298.756C370.666 292.591 362.018 289.126 353 289.124L353 256.257C361.931 256.257 370.774 257.957 379.025 261.261C387.275 264.565 394.772 269.408 401.087 275.513C407.401 281.618 412.41 288.866 415.827 296.842C419.243 304.818 421.001 313.367 421 322Z" fill="#737373"/>
<path opacity="0.2" d="M60.8349 210.034L60.8313 210.031C53.6833 203.124 42.0941 203.124 34.9461 210.031L34.9424 210.034C27.7944 216.941 27.7944 228.139 34.9424 235.046L34.9461 235.05C42.0941 241.956 53.6833 241.956 60.8313 235.05L60.8349 235.046C67.9829 228.139 67.9829 216.941 60.8349 210.034Z" fill="#737373"/>
<path opacity="0.2" d="M83 99.6332L175 99.6332C175 111.441 172.62 123.133 167.997 134.042C163.373 144.95 156.597 154.862 148.054 163.212C139.511 171.561 129.369 178.184 118.207 182.703C107.045 187.221 95.0816 189.547 83 189.547L83 99.6332Z" fill="#737373"/>
<path opacity="0.2" d="M100.299 189.223H117.609L83 222.664L83 239.39L134.918 189.223H152.218H83V205.948L100.299 189.223Z" fill="#737373"/>
<path opacity="0.2" d="M152.218 222.664L117.609 256.115H100.299L152.218 205.948V189.223L83 256.115H134.918L152.218 239.39V222.664Z" fill="#737373"/>
<path opacity="0.2" d="M169.517 189.223H186.827L152.218 222.664V239.39L204.136 189.223H221.435H152.218V205.948L169.517 189.223Z" fill="#737373"/>
<path opacity="0.2" d="M221.435 222.664L186.827 256.115H169.517L221.435 205.948V189.223L152.218 256.115H204.136L221.435 239.39V222.664Z" fill="#737373"/>
<path opacity="0.2" d="M299.997 -6.10352e-05L317.306 -6.10352e-05L282.697 33.4412V50.1665L334.615 -6.10352e-05L351.915 -6.10352e-05L282.697 -6.10352e-05V16.7253L299.997 -6.10352e-05Z" fill="#737373"/>
<path opacity="0.2" d="M351.915 33.4412L317.306 66.8918H299.997L351.915 16.7253V-6.10352e-05L282.697 66.8918L334.615 66.8918L351.915 50.1665V33.4412Z" fill="#737373"/>
<path opacity="0.2" d="M299.997 66.9204H317.306L282.697 100.362V117.087L334.615 66.9204H351.915L282.697 66.9204V83.6457L299.997 66.9204Z" fill="#737373"/>
<path opacity="0.2" d="M351.915 100.362L317.306 133.812H299.997L351.915 83.6457V66.9204L282.697 133.812H334.615L351.915 117.087V100.362Z" fill="#737373"/>
<path opacity="0.2" d="M353 193.414C353 169.824 362.693 147.2 379.946 130.519C397.199 113.838 420.6 104.467 445 104.467L445 193.414L353 193.414Z" fill="#737373"/>
</svg>
