<svg width="431" height="322" viewBox="0 0 431 322" fill="none" xmlns="http://www.w3.org/2000/svg">
<path opacity="0.2" d="M40.1886 302.612C29.5358 302.612 19.3188 298.388 11.7829 290.868C4.24707 283.347 0.00892355 273.146 -9.43906e-05 262.506C-9.43906e-05 251.861 4.23405 241.651 11.7709 234.123C19.3077 226.596 29.5299 222.367 40.1886 222.367H80.3887L80.3887 262.506C80.3797 273.148 76.1399 283.351 68.6016 290.872C61.0633 298.392 50.8434 302.615 40.1886 302.612Z" fill="#737373"/>
<path opacity="0.2" d="M241.166 32.8716H341.894V132.453C341.894 119.376 339.289 106.427 334.227 94.345C329.165 82.2632 321.745 71.2854 312.392 62.0384C303.038 52.7913 291.934 45.4562 279.713 40.4518C267.492 35.4473 254.394 32.8716 241.166 32.8716Z" fill="#737373"/>
<path opacity="0.2" d="M270.223 321.948H169.495V222.367C169.495 235.444 172.1 248.393 177.162 260.475C182.224 272.557 189.644 283.535 198.997 292.782C208.351 302.029 219.455 309.364 231.676 314.368C243.897 319.373 256.995 321.948 270.223 321.948Z" fill="#737373"/>
<path opacity="0.2" d="M156.455 222.367H156.451C149.226 222.367 143.365 228.214 143.361 235.426L143.361 235.43C143.357 242.643 149.211 248.49 156.436 248.49H156.44C163.665 248.49 169.526 242.643 169.53 235.43L169.53 235.426C169.534 228.214 163.68 222.367 156.455 222.367Z" fill="#737373"/>
<path opacity="0.2" d="M147.178 244.659C145.962 243.447 144.998 242.007 144.34 240.423C143.682 238.839 143.344 237.141 143.344 235.426C143.344 233.712 143.682 232.014 144.34 230.43C144.998 228.845 145.962 227.406 147.178 226.194C148.393 224.981 149.836 224.019 151.423 223.363C153.011 222.707 154.713 222.369 156.432 222.369C158.151 222.369 159.853 222.707 161.441 223.363C163.028 224.019 164.471 224.981 165.686 226.194L147.178 244.659Z" fill="#737373"/>
<path opacity="0.2" d="M306.542 173.059H291.53V157.59C291.53 155.559 291.918 153.547 292.673 151.671C293.427 149.794 294.533 148.089 295.927 146.652C297.321 145.216 298.976 144.076 300.797 143.299C302.619 142.521 304.571 142.121 306.542 142.121H321.555V157.59C321.555 161.693 319.973 165.628 317.158 168.529C314.342 171.43 310.524 173.059 306.542 173.059Z" fill="#737373"/>
<path opacity="0.2" d="M376.386 286.176H340.926V321.554H376.386V286.176Z" fill="#737373"/>
<path opacity="0.2" d="M376.386 321.549H340.926V286.176L376.386 321.549Z" fill="#737373"/>
<path opacity="0.2" d="M407.755 0L374.825 -1.43943e-06C374.825 8.71772 371.355 17.0785 365.18 23.2437C359.005 29.409 350.629 32.8738 341.894 32.8763L341.894 65.7432C350.544 65.7432 359.109 64.0427 367.1 60.7386C375.091 57.4346 382.352 52.5919 388.468 46.4869C394.584 40.382 399.435 33.1344 402.744 25.1581C406.053 17.1818 407.756 8.63309 407.755 0Z" fill="#737373"/>
<path opacity="0.2" d="M58.9208 111.966L58.9172 111.97C51.9941 118.876 40.7695 118.876 33.8464 111.97L33.8429 111.966C26.9198 105.059 26.9198 93.8609 33.8429 86.9541L33.8464 86.9505C40.7695 80.0437 51.9941 80.0437 58.9173 86.9505L58.9208 86.9541C65.8439 93.8609 65.8439 105.059 58.9208 111.966Z" fill="#737373"/>
<path opacity="0.2" d="M80.3887 222.367H169.494C169.494 210.559 167.189 198.867 162.711 187.958C158.234 177.05 151.67 167.138 143.396 158.788C135.122 150.439 125.299 143.816 114.488 139.297C103.677 134.779 92.0902 132.453 80.3887 132.453V222.367Z" fill="#737373"/>
<path opacity="0.2" d="M97.1439 132.777H113.909L80.3887 99.3357V82.6103L130.673 132.777H147.429H80.3887V116.052L97.1439 132.777Z" fill="#737373"/>
<path opacity="0.2" d="M147.429 99.3357L113.909 65.885H97.1439L147.429 116.052V132.777L80.3887 65.885H130.673L147.429 82.6103V99.3357Z" fill="#737373"/>
<path opacity="0.2" d="M164.184 132.777H180.949L147.429 99.3357V82.6103L197.713 132.777H214.469H147.429V116.052L164.184 132.777Z" fill="#737373"/>
<path opacity="0.2" d="M214.469 99.3357L180.949 65.885H164.184L214.469 116.052V132.777L147.429 65.885H197.713L214.469 82.6103V99.3357Z" fill="#737373"/>
<path opacity="0.2" d="M290.558 322H307.323L273.803 288.559V271.833L324.087 322H340.843H273.803V305.275L290.558 322Z" fill="#737373"/>
<path opacity="0.2" d="M340.843 288.559L307.323 255.108H290.558L340.843 305.275V322L273.803 255.108H324.087L340.843 271.833V288.559Z" fill="#737373"/>
<path opacity="0.2" d="M290.558 255.08H307.323L273.803 221.638V204.913L324.087 255.08H340.843H273.803V238.354L290.558 255.08Z" fill="#737373"/>
<path opacity="0.2" d="M340.843 221.638L307.323 188.188H290.558L340.843 238.354V255.08L273.803 188.188H324.087L340.843 204.913V221.638Z" fill="#737373"/>
<path opacity="0.2" d="M341.895 128.586C341.895 152.176 351.282 174.8 367.993 191.481C384.703 208.162 407.368 217.533 431 217.533L431 128.586L341.895 128.586Z" fill="#737373"/>
</svg>
